<svg xmlns="http://www.w3.org/2000/svg" viewBox="0 0 800 420" role="img" aria-labelledby="title desc"><title id="title">Meal prep workflow bonus</title><desc id="desc">A four-step meal prep workflow with a checklist and calendar.</desc><rect width="800" height="420" fill="#e4e4d7"/><rect x="72" y="52" width="400" height="310" rx="18" fill="#fffdf9" stroke="#314c42" stroke-width="7"/><rect x="72" y="52" width="400" height="60" rx="18" fill="#314c42"/><circle cx="108" cy="82" r="9" fill="#e8734c"/><circle cx="139" cy="82" r="9" fill="#e8734c"/><text x="103" y="158" fill="#314c42" font-family="Georgia,serif" font-size="28" font-weight="bold">Your prep plan</text><g stroke="#e8734c" stroke-width="6" fill="none"><rect x="108" y="195" width="26" height="26" rx="5"/><rect x="108" y="245" width="26" height="26" rx="5"/><rect x="108" y="295" width="26" height="26" rx="5"/></g><g stroke="#b6c7b5" stroke-width="9" stroke-linecap="round"><path d="M165 208h225M165 258h225M165 308h188"/></g><g fill="#e8734c"><circle cx="603" cy="126" r="74"/><circle cx="603" cy="244" r="74"/></g><g fill="#fffdf9" font-family="Arial,sans-serif" font-size="45" font-weight="bold" text-anchor="middle"><text x="603" y="142">1</text><text x="603" y="260">2</text></g><path d="M603 200v-22" stroke="#314c42" stroke-width="9" stroke-linecap="round"/><path d="M529 354h148" stroke="#314c42" stroke-width="8" stroke-linecap="round"/><text x="490" y="384" fill="#314c42" font-family="Georgia,serif" font-size="27" font-weight="bold">Plan · Prep · Repeat</text></svg>